<svg xmlns="http://www.w3.org/2000/svg" width="300" height="300" fill="none" viewBox="0 0 300 300"><path fill="#dc143c" d="M0 0h300v300H0z"/><path fill="#fff" fill-rule="evenodd" d="M167.69 127.37q5.1 0 8.491 2.1t5.099 5.85q1.71 3.72 1.71 8.64 0 5.97-1.529 10.59-1.5 4.59-4.62 7.95-3.09 3.36-7.891 5.67-4.77 2.28-11.309 3.63l-1.951-6.66q5.34-1.35 9-3.3 3.66-1.98 5.76-4.77 1.595-2.142 2.359-4.873a18 18 0 0 1-3.079 2.173q-2.309 1.26-5.429 1.26-3.27 0-5.941-1.65t-4.259-4.65q-1.56-3-1.56-7.019 0-4.5 1.98-7.861a14.03 14.03 0 0 1 5.429-5.22q3.45-1.86 7.74-1.86m-.059 6.75q-2.55 0-4.051 1.92-1.5 1.92-1.5 6 0 3.84 1.5 5.4 1.53 1.56 3.66 1.56 2.07 0 3.75-.899 1.106-.595 2.225-1.539.026-3.985-.334-6.682-.36-2.91-1.59-4.319-1.2-1.44-3.66-1.441M131.954 127.37q7.44 0 11.22 5.76 3.81 5.73 3.81 15.99 0 10.29-3.81 16.11-3.78 5.79-11.22 5.791-7.5 0-11.28-5.791-3.75-5.82-3.75-16.11 0-10.26 3.75-15.99 3.78-5.76 11.28-5.76m-3.682 35.723q.319.29.682.487 1.2.6 3 .6 2.13 0 3.45-1.44 1.35-1.44 1.98-4.74.63-3.33.63-8.88-.002-3.334-.163-5.805zm3.682-28.853q-3.18 0-4.65 3.42-1.47 3.39-1.47 11.46 0 4.68.27 7.651.037.365.081.71l10.136-21.206a3.8 3.8 0 0 0-.707-.865q-1.29-1.17-3.66-1.17" clip-rule="evenodd"/><path fill="#fff" d="M215.757 135.2h-15.21v8.97q1.53-.72 3.15-1.02t3-.299q3.21 0 5.85 1.619 2.67 1.62 4.23 4.65 1.59 3.03 1.59 7.231 0 4.199-2.07 7.529-2.04 3.33-5.7 5.25-3.66 1.89-8.55 1.891-4.53-.001-8.01-1.681-3.48-1.71-5.79-4.529l5.46-4.981q1.5 1.92 3.45 2.941 1.98.989 4.14.989 3.3 0 5.28-2.01 2.01-2.01 2.01-5.25 0-2.58-.72-4.14-.69-1.56-1.95-2.25-1.26-.72-2.939-.72-1.14 0-2.431.3-1.29.3-2.67 1.081h-6.39V128.42h25.32z"/><path fill="#fff" fill-rule="evenodd" d="M239.943 127.37q3.03 0 5.551.78 2.52.75 4.35 2.19a9.7 9.7 0 0 1 2.849 3.48q1.02 2.01 1.021 4.56 0 2.91-1.561 5.01t-4.889 3.99q4.2 2.1 6.12 4.98 1.95 2.85 1.95 6.36 0 3.21-1.771 6.03-1.74 2.79-5.219 4.53-3.45 1.74-8.64 1.741-5.07 0-8.49-1.681-3.39-1.68-5.101-4.41a11.28 11.28 0 0 1-1.679-5.97q0-3.57 2.07-6.21t5.58-4.17q-3.18-2.04-4.62-4.14-1.41-2.13-1.41-5.58 0-2.67 1.05-4.77 1.05-2.13 2.91-3.63 1.89-1.5 4.41-2.28 2.55-.81 5.519-.81m-2.04 23.76a9.3 9.3 0 0 0-2.099 1.86q-.9 1.05-1.41 2.4-.48 1.35-.48 3 0 2.58 1.5 4.23 1.53 1.62 4.529 1.62 3.09 0 4.5-1.65 1.41-1.68 1.411-3.93 0-2.07-.84-3.36-.81-1.29-2.55-2.22-1.74-.96-4.561-1.95m2.04-17.31q-2.309 0-3.599 1.29-1.26 1.26-1.26 3.75 0 1.47.63 2.58.66 1.11 2.01 1.98t3.42 1.65q2.04-1.5 2.79-2.94.75-1.47.75-3.21 0-2.22-1.201-3.66-1.17-1.44-3.54-1.44M58.741 136.94h5.73l1.14-8.52h7.83l-1.14 8.52h3.63v6.27h-4.47l-1.5 11.88h3.75v6.24h-4.59l-1.14 8.67h-7.83l1.14-8.67h-5.7L54.45 170h-7.83l1.08-8.67h-3.57v-6.24h4.41l1.56-11.88h-3.75v-6.27h4.59l1.08-8.52h7.89zm-2.37 18.15h5.7l1.56-11.88h-5.7z" clip-rule="evenodd"/><path fill="#fff" d="M103.268 162.83h7.769V170h-27.03v-7.17h10.02v-25.08l-8.55 5.34-4.02-6.51 13.41-8.16h8.401z"/></svg>